<?xml version="1.0" standalone="no"?>
<!DOCTYPE svg PUBLIC "-//W3C//DTD SVG 20010904//EN"
 "http://www.w3.org/TR/2001/REC-SVG-20010904/DTD/svg10.dtd">
<svg version="1.0" xmlns="http://www.w3.org/2000/svg"
 width="512.000000pt" height="512.000000pt" viewBox="0 0 512.000000 512.000000"
 preserveAspectRatio="xMidYMid meet">
<metadata>
Created by potrace 1.14, written by Peter Selinger 2001-2017
</metadata>
<g transform="translate(0.000000,512.000000) scale(0.100000,-0.100000)"
fill="#000000" stroke="none">
<path d="M0 2560 l0 -2560 2560 0 2560 0 0 2560 0 2560 -2560 0 -2560 0 0
-2560z m532 1409 c44 -11 110 -60 149 -109 15 -19 240 -390 500 -825 449 -753
604 -1026 770 -1357 77 -153 102 -182 94 -105 -33 290 -44 680 -47 1572 l-3
810 50 11 c88 21 195 17 245 -8 87 -44 80 81 80 -1425 l0 -1332 -52 -25 c-100
-48 -262 -54 -355 -14 -48 21 -102 70 -137 122 -59 89 -955 1603 -1063 1796
-57 102 -141 258 -186 347 -45 90 -86 163 -91 163 -8 0 -7 -32 14 -295 17
-204 31 -1006 28 -1570 l-3 -560 -50 -13 c-68 -17 -185 -16 -226 1 -45 19 -75
54 -88 102 -8 28 -11 434 -11 1344 0 1230 1 1305 18 1318 83 66 232 87 364 52z
m4418 -66 c42 -111 5 -229 -77 -252 -25 -7 -261 -11 -670 -11 l-633 0 0 -475
0 -475 599 0 599 0 18 -52 c33 -98 19 -193 -36 -243 -21 -19 -38 -20 -601 -23
l-579 -2 0 -605 0 -604 -54 -12 c-30 -6 -91 -10 -138 -7 -95 5 -134 24 -166
81 -16 30 -17 115 -17 1297 0 696 4 1282 8 1302 10 49 51 96 102 119 38 18 85
19 832 19 l792 0 21 -57z"/>
</g>
</svg>
